<?xml version="1.0" encoding="UTF-8" standalone="no"?>
<!-- Created with Inkscape (http://www.inkscape.org/) -->

<svg
        width="76.701813"
        height="97.569077"
        viewBox="0 0 76.701813 97.569077"
        version="1.1"
        id="svg1"
        xml:space="preserve"
        xmlns="http://www.w3.org/2000/svg"
        xmlns:svg="http://www.w3.org/2000/svg"><defs
     id="defs1" />
    <g
            id="layer2"
            transform="translate(-23.576,-8.8033009)"><path
       style="fill:#000000;stroke-width:5;stroke-linecap:round;stroke-linejoin:round;paint-order:stroke fill markers"
       d="m 40.363131,94.2363 c 0,0 1.078617,-30.578094 -15.87021,-51.643172 0,0 -6.05027,-29.447614 12.932414,-33.7874089 0,0 9.265356,-0.487618 4.180707,12.3854829 0,0 -2.146849,3.413322 -0.338974,19.79727 1.807873,16.383946 31.746296,24.004639 6.381216,52.272591 -2.428385,1.796217 -4.856768,2.121297 -7.285153,0.975237 z"
       id="path1" />
        <path
                style="fill:#000000;stroke-width:5.00001;stroke-linecap:round;stroke-linejoin:round;paint-order:stroke fill markers"
                d="m 44.91844,96.180455 c 2.838415,-1.12248 47.761316,-17.647109 55.20393,-0.37463 0,0 2.81768,3.19208 -15.539932,8.876015 0,0 -31.476344,3.44742 -39.853791,0.49628 -8.468872,-2.98336 -1.61786,-8.431185 0.189791,-8.997665 z"
                id="path2"/></g></svg>
